Coordinates
version=1
nRows=10
nColumns=34
inDegrees=yes

Units are S.I. units (second, meters, Newtons, ...)
If the header above contains a line with 'inDegrees', this indicates whether rotational values are in degrees (yes) or radians (no).

endheader
time	pelvis_tilt	pelvis_list	pelvis_rotation	pelvis_tx	pelvis_ty	pelvis_tz	hip_flexion_r	hip_adduction_r	hip_rotation_r	knee_angle_r	ankle_angle_r	subtalar_angle_r	mtp_angle_r	hip_flexion_l	hip_adduction_l	hip_rotation_l	knee_angle_l	ankle_angle_l	subtalar_angle_l	mtp_angle_l	lumbar_extension	lumbar_bending	lumbar_rotation	arm_flex_r	arm_add_r	arm_rot_r	elbow_flex_r	pro_sup_r	arm_flex_l	arm_add_l	arm_rot_l	elbow_flex_l	pro_sup_l
      0.00000000	     -0.52534602	     -4.41235549	     -2.36172050	     -1.43081553	      0.94181388	     -0.14765626	     -1.92515687	      7.67567081	     -0.34256693	      4.69841530	     -0.70883730	    -10.42637373	      0.00000000	     -2.67657168	     -1.90222637	     -3.17702972	      2.42143467	     15.54791987	     -0.94918254	      0.00000000	      0.25588429	      6.48057325	     -5.62054816	      1.23875670	     -5.13673797	      7.63347076	     24.91373647	     87.18236333	     -7.35310903	     -3.44651832	      0.63410232	     28.89461288	     80.66620750
      0.01666670	     -3.69741218	     -2.05205746	     -2.74066696	     -1.42814769	      0.93628584	     -0.14753232	      2.19502739	      5.53621423	      0.55800077	      5.11286669	      4.08062478	     -6.26132912	      0.00000000	      2.06668216	      1.12675061	     -3.89115993	      4.02721718	     15.05812933	     -0.75926097	      0.00000000	      5.26976882	      4.34016614	     -5.04176675	     -0.65391162	     -4.93913558	      6.61595742	     25.31254748	     87.16358327	     -7.87138442	     -3.65478357	     -0.31210119	     27.72750016	     80.60566136
      0.03333330	     -4.40143260	     -0.73050145	     -3.26704841	     -1.42811878	      0.93533349	     -0.14640460	      2.93802779	      4.05989596	     -0.03634392	      4.68182501	      5.71920095	     -3.37032701	      0.00000000	      2.97579814	      2.53779812	     -5.73320983	      4.40889440	     14.61986032	      0.17696059	      0.00000000	      6.71341085	      2.94496837	     -4.46054625	     -1.22952323	     -4.98966491	      7.01444129	     25.85349141	     87.45739951	     -8.04795111	     -4.40317634	      1.60330866	     27.32633033	     80.97242790
      0.05000000	     -3.93357295	     -0.36093763	     -3.51284365	     -1.42802273	      0.93772592	     -0.14616416	      2.20915259	      3.61422462	     -0.23566100	      4.19490184	      6.57784080	     -1.78759911	      0.00000000	      1.92775839	      3.15459101	     -6.09249574	      3.70918959	     13.89654501	      0.05770796	      0.00000000	      6.48829435	      2.61890122	     -3.87175400	     -1.46690819	     -5.23892720	      8.56030002	     26.10351510	     88.16190973	     -7.68574105	     -5.37882799	      7.02291550	     26.54770290	     81.56843728
      0.06666670	     -3.91467483	     -0.35763995	     -3.50952171	     -1.42842784	      0.93833943	     -0.14620218	      2.24673521	      3.68884315	     -0.22941324	      4.16718277	      6.58422269	     -1.78461013	      0.00000000	      1.90587395	      3.24109922	     -6.09871309	      3.71698796	     13.89197446	      0.05771079	      0.00000000	      6.49075250	      2.62578573	     -3.87104441	     -1.46688034	     -5.23702686	      8.56172992	     26.10369289	     88.16237399	     -7.68158675	     -5.37796959	      7.02515818	     26.54863793	     81.56807111
      0.08333330	     -3.08910426	     -0.40310695	     -3.80110319	     -1.42860154	      0.93984343	     -0.14589910	      1.14856747	      3.76093981	      0.64578020	      3.57987670	      6.93411149	     -1.50172661	      0.00000000	      0.62994977	      3.34868749	     -6.36233735	      2.89057535	     13.03443657	     -0.06991653	      0.00000000	      5.38954660	      2.73450260	     -3.03165180	     -1.27795100	     -5.43310494	      9.19891659	     25.80571903	     88.41797394	     -6.59237003	     -5.44288322	      8.20067239	     25.93943115	     81.31443921
      0.10000000	     -3.05998926	     -0.48403372	     -3.67522004	     -1.42856811	      0.93984205	     -0.14601521	      1.15449837	      3.87971429	      0.72700492	      3.51138943	      6.95207524	     -1.48531672	      0.00000000	      0.61455728	      3.29710369	     -6.37295126	      2.78882719	     13.02075819	     -0.07243134	      0.00000000	      5.39186910	      2.77882948	     -3.09375007	     -1.25473287	     -5.46316037	      9.20846992	     25.79410265	     88.42386548	     -6.39731248	     -5.48703732	      8.22004403	     25.95723859	     81.29801456
      0.11666670	     -2.25775581	     -0.75164890	     -3.53753234	     -1.42904718	      0.94114498	     -0.14627838	      0.07312367	      4.14462707	      0.97346070	      2.97975953	      6.62238593	     -1.79607354	      0.00000000	     -0.35855702	      3.09579715	     -6.05650155	      2.56097286	     12.74977254	     -0.28630080	      0.00000000	      4.37110450	      3.05031541	     -2.91713275	     -1.02451726	     -5.62614874	      9.46421780	     25.32745065	     88.54988487	     -5.41690998	     -5.38186685	      8.75592814	     25.04570311	     80.93216357
      0.13333330	     -2.17560494	     -0.83686920	     -3.45075805	     -1.42993712	      0.94186134	     -0.14609413	      0.09140966	      4.26897372	      1.05025836	      3.07878688	      6.54333911	     -1.82894434	      0.00000000	     -0.38671795	      2.97997978	     -5.92814088	      2.65223670	     12.63201052	     -0.21849654	      0.00000000	      4.20293559	      3.02620162	     -2.92430376	     -0.98970763	     -5.57764489	      9.49840228	     25.30180938	     88.56523594	     -5.23760037	     -5.52856802	      8.79337584	     24.93771890	     80.86852663
      0.15000000	     -2.10659608	     -0.89565006	     -3.31705368	     -1.43042219	      0.94286572	     -0.14615632	      0.07356452	      4.34908232	      1.07121619	      3.15022374	      6.49377614	     -1.85714505	      0.00000000	     -0.44507030	      2.90432035	     -5.90007348	      2.74239899	     12.58208179	     -0.21190944	      0.00000000	      4.13923152	      2.95586213	     -2.92489595	     -0.98267418	     -5.59947360	      9.50488282	     25.27762162	     88.57042729	     -5.18007974	     -5.52724376	      8.81179789	     24.88926194	     80.84639623
